<?xml version="1.0" encoding="UTF-8" standalone="no"?>
<svg
   xmlns:osb="http://www.openswatchbook.org/uri/2009/osb"
   xmlns:dc="http://purl.org/dc/elements/1.1/"
   xmlns:cc="http://creativecommons.org/ns#"
   xmlns:rdf="http://www.w3.org/1999/02/22-rdf-syntax-ns#"
   xmlns:svg="http://www.w3.org/2000/svg"
   xmlns="http://www.w3.org/2000/svg"
   xmlns:sodipodi="http://sodipodi.sourceforge.net/DTD/sodipodi-0.dtd"
   xmlns:inkscape="http://www.inkscape.org/namespaces/inkscape"
   viewBox="0 0 37.04 37.04"
   version="1.1"
   id="svg8"
   sodipodi:docname="face.svg"
   inkscape:version="0.92.2 (5c3e80d, 2017-08-06)">
  <metadata
     id="metadata14">
    <rdf:RDF>
      <cc:Work
         rdf:about="">
        <dc:format>image/svg+xml</dc:format>
        <dc:type
           rdf:resource="http://purl.org/dc/dcmitype/StillImage" />
        <dc:title />
      </cc:Work>
    </rdf:RDF>
  </metadata>
  <defs
     id="defs12">
    <linearGradient
       id="linearGradient839"
       osb:paint="solid">
      <stop
         style="stop-color:#000000;stop-opacity:1;"
         offset="0"
         id="stop837" />
    </linearGradient>
    <inkscape:perspective
       sodipodi:type="inkscape:persp3d"
       inkscape:vp_x="-3.9923923 : 13.774323 : 1"
       inkscape:vp_y="0 : 1000 : 0"
       inkscape:vp_z="64.594388 : 18.482797 : 1"
       inkscape:persp3d-origin="35.872693 : 5.7175998 : 1"
       id="perspective821" />
  </defs>
  <sodipodi:namedview
     pagecolor="#ffffff"
     bordercolor="#666666"
     borderopacity="1"
     objecttolerance="10"
     gridtolerance="10"
     guidetolerance="10"
     inkscape:pageopacity="0"
     inkscape:pageshadow="2"
     inkscape:window-width="1362"
     inkscape:window-height="729"
     id="namedview10"
     showgrid="false"
     inkscape:pagecheckerboard="true"
     inkscape:zoom="18.021295"
     inkscape:cx="12.110472"
     inkscape:cy="18.52"
     inkscape:window-x="0"
     inkscape:window-y="18"
     inkscape:window-maximized="0"
     inkscape:current-layer="svg8" />
  <path
     d="m 13.236025,30.33 c -0.2,-0.22 -0.32,-0.58 -0.32,-1.04 0,-0.5 0.12,-0.9 0.32,-1.1 l 0.17,-0.2 h 10.26 l 0.16,0.2 c 0.43,0.4 0.43,1.6 0,2.1 l -0.17,0.1 h -10.29 z m -2.7,-6.7 c -0.5999999,-0.2 -0.9199999,-0.4 -1.3699999,-0.9 -0.55,-0.58 -0.74,-1.1 -0.74,-2 0,-1 0.2,-1.48 0.87,-2.16 0.7,-0.68 1.1499999,-0.86 2.1599999,-0.86 1,0 1.4,0.2 2.1,0.9 0.7,0.7 0.8,1.2 0.8,2.2 0,1 -0.2,1.5 -0.9,2.2 -0.4,0.4 -0.6,0.6 -1,0.7 -0.7,0.3 -1.6,0.3 -2.1,0.1 z m 14.14,0 c -0.6,-0.2 -0.9,-0.4 -1.3,-0.9 -0.5,-0.58 -0.7,-1.1 -0.7,-2 0,-1 0.2,-1.48 0.9,-2.16 0.7,-0.68 1.2,-0.86 2.2,-0.86 1,0 1.5,0.2 2.2,0.9 0.7,0.7 0.9,1.2 0.9,2.2 0,1 -0.2,1.5 -0.9,2.2 -0.4,0.4 -0.6,0.6 -0.9,0.7 -0.6,0.3 -1.5,0.3 -2.1,0.1 z M 7.5660251,15.38 c -0.2,-0.04 -0.4,-0.12 -0.44,-0.17 -0.1,-0.1 -0.06,-0.6 0.05,-0.8 l 0.1,-0.2 h 1.6 c 1.4999999,0 1.6999999,0 2.3999999,-0.2 1,-0.2 2.2,-0.8 3,-1.4 l 0.6,-0.4 0.3,0.2 c 0.3,0.2 0.6,0.6 0.5,0.8 0,0.3 -1.5,1.2 -2.6,1.7 -1.2,0.5 -2.1,0.7 -3.4999999,0.7 h -1.81 z m 19.5999999,0 c -1.78,-0.17 -3.66,-0.9 -5.1,-2 -0.32,-0.26 -0.4,-0.36 -0.4,-0.54 0,-0.28 0.44,-0.75 0.7,-0.75 0.08,0 0.37,0.1 0.63,0.3 0.7,0.5 2.04,1.1 2.94,1.4 0.73,0.2 0.9,0.2 2.4,0.2 h 1.6 l 0.1,0.2 c 0.15,0.3 0.13,0.8 -0.05,0.9 -0.14,0.1 -1.73,0.2 -2,0.2 -0.266702,-0.03305 -0.533368,-0.06639 -0.8,-0.1 z"
     id="path4"
     inkscape:connector-curvature="0"
     style="fill:#ffffff"
     sodipodi:nodetypes="csccccccccccscsssscccccsssssscccccccscccsccsccccssccscscccc" />
  <path
     d="m -26.159703,-6.5095765 c -0.76,-0.2 -1.26,-0.5 -1.83,-1.04 -1.9,-1.87 -1.62,-5.4700005 0.7,-9.1800005 0.78,-1.28 2,-2.86 2.2,-2.86 0.16,0 1,1.06 1.76,2.16 2.7,3.98 3.13,7.8800005 1.12,9.8700005 -0.58,0.56 -1.07,0.84 -1.87,1.04 -0.687109,0.1899835 -1.412891,0.1899835 -2.1,0 z"
     id="path4-3"
     inkscape:connector-curvature="0"
     style="fill:#ffffff"
     sodipodi:nodetypes="cccsccccc" />
  <g
     sodipodi:type="inkscape:box3d"
     id="g823"
     style="fill:none;fill-opacity:1;stroke:#fffffe;stroke-opacity:1;paint-order:fill markers stroke"
     inkscape:perspectiveID="#perspective821"
     inkscape:corner0="5.5555555 : 0.065269948 : 0 : 1"
     inkscape:corner7="2.5859488 : -0.044779199 : 2.7124692 : 1"
     inkscape:export-filename="/home/henrik/g823.png"
     inkscape:export-xdpi="466.53448"
     inkscape:export-ydpi="466.53448">
    <path
       sodipodi:type="inkscape:box3dside"
       id="path825"
       style="fill:none;fill-opacity:1;fill-rule:evenodd;stroke:#fffffe;stroke-width:1px;stroke-linecap:butt;stroke-linejoin:round;stroke-opacity:1"
       inkscape:box3dsidetype="6"
       d="M 2.0887225,14.538236 V 31.325395 L 20.382232,27.588533 V 15.714466 Z"
       points="2.0887225,31.325395 20.382232,27.588533 20.382232,15.714466 2.0887225,14.538236 " />
    <path
       sodipodi:type="inkscape:box3dside"
       id="path833"
       style="fill:none;fill-opacity:1;fill-rule:evenodd;stroke:#fffffe;stroke-width:1px;stroke-linecap:butt;stroke-linejoin:round;stroke-opacity:1"
       inkscape:box3dsidetype="13"
       d="M 2.0887225,31.325395 7.1246337,37.999832 31.87449,29.626693 20.382232,27.588533 Z"
       points="7.1246337,37.999832 31.87449,29.626693 20.382232,27.588533 2.0887225,31.325395 " />
    <path
       sodipodi:type="inkscape:box3dside"
       id="path835"
       style="fill:none;fill-opacity:1;fill-rule:evenodd;stroke:#fffffe;stroke-width:1px;stroke-linecap:butt;stroke-linejoin:round;stroke-opacity:1"
       inkscape:box3dsidetype="11"
       d="M 20.382232,15.714466 31.87449,12.154186 V 29.626693 L 20.382232,27.588533 Z"
       points="31.87449,12.154186 31.87449,29.626693 20.382232,27.588533 20.382232,15.714466 " />
    <path
       sodipodi:type="inkscape:box3dside"
       id="path827"
       style="fill:none;fill-opacity:1;fill-rule:evenodd;stroke:#fffffe;stroke-width:1px;stroke-linecap:butt;stroke-linejoin:round;stroke-opacity:1"
       inkscape:box3dsidetype="5"
       d="M 2.0887225,14.538236 7.1246337,7.3108412 31.87449,12.154186 20.382232,15.714466 Z"
       points="7.1246337,7.3108412 31.87449,12.154186 20.382232,15.714466 2.0887225,14.538236 " />
    <path
       sodipodi:type="inkscape:box3dside"
       id="path831"
       style="fill:none;fill-opacity:1;fill-rule:evenodd;stroke:#fffffe;stroke-width:1px;stroke-linecap:butt;stroke-linejoin:round;stroke-opacity:1"
       inkscape:box3dsidetype="14"
       d="M 7.1246337,7.3108412 V 37.999832 L 31.87449,29.626693 V 12.154186 Z"
       points="7.1246337,37.999832 31.87449,29.626693 31.87449,12.154186 7.1246337,7.3108412 " />
    <path
       sodipodi:type="inkscape:box3dside"
       id="path829"
       style="fill:none;fill-opacity:1;fill-rule:evenodd;stroke:#fffffe;stroke-width:1px;stroke-linecap:butt;stroke-linejoin:round;stroke-opacity:1"
       inkscape:box3dsidetype="3"
       d="M 2.0887225,14.538236 7.1246337,7.3108412 V 37.999832 L 2.0887225,31.325395 Z"
       points="7.1246337,7.3108412 7.1246337,37.999832 2.0887225,31.325395 2.0887225,14.538236 " />
  </g>
</svg>
