<?xml version="1.0" encoding="UTF-8" standalone="no"?>
<!-- Created with Inkscape (http://www.inkscape.org/) -->

<svg
   xmlns:osb="http://www.openswatchbook.org/uri/2009/osb"
   xmlns:dc="http://purl.org/dc/elements/1.1/"
   xmlns:cc="http://creativecommons.org/ns#"
   xmlns:rdf="http://www.w3.org/1999/02/22-rdf-syntax-ns#"
   xmlns:svg="http://www.w3.org/2000/svg"
   xmlns="http://www.w3.org/2000/svg"
   xmlns:xlink="http://www.w3.org/1999/xlink"
   xmlns:sodipodi="http://sodipodi.sourceforge.net/DTD/sodipodi-0.dtd"
   xmlns:inkscape="http://www.inkscape.org/namespaces/inkscape"
   width="140px"
   height="140px"
   viewBox="0 0 140 140"
   version="1.1"
   id="SVGRoot"
   inkscape:version="0.92.2 (5c3e80d, 2017-08-06)"
   sodipodi:docname="icon.svg">
  <sodipodi:namedview
     id="base"
     pagecolor="#ffffff"
     bordercolor="#666666"
     borderopacity="1.0"
     inkscape:pageopacity="0.0"
     inkscape:pageshadow="2"
     inkscape:zoom="0.32324881"
     inkscape:cx="70"
     inkscape:cy="507.5"
     inkscape:document-units="px"
     inkscape:current-layer="layer1"
     showgrid="false"
     inkscape:window-width="1366"
     inkscape:window-height="768"
     inkscape:window-x="0"
     inkscape:window-y="0"
     inkscape:window-maximized="0"
     inkscape:grid-bbox="true" />
  <defs
     id="defs6632">
    <linearGradient
       inkscape:collect="always"
       id="linearGradient7541">
      <stop
         style="stop-color:#000000;stop-opacity:1;"
         offset="0"
         id="stop7537" />
      <stop
         style="stop-color:#000000;stop-opacity:0;"
         offset="1"
         id="stop7539" />
    </linearGradient>
    <linearGradient
       id="linearGradient7533"
       osb:paint="solid">
      <stop
         style="stop-color:#000000;stop-opacity:1;"
         offset="0"
         id="stop7531" />
    </linearGradient>
    <linearGradient
       id="linearGradient6297"
       osb:paint="solid">
      <stop
         style="stop-color:#000000;stop-opacity:1;"
         offset="0"
         id="stop6295" />
    </linearGradient>
    <linearGradient
       inkscape:collect="always"
       xlink:href="#linearGradient7541"
       id="linearGradient7543"
       x1="34.90402"
       y1="408.59334"
       x2="758.79677"
       y2="408.59334"
       gradientUnits="userSpaceOnUse" />
  </defs>
  <metadata
     id="metadata6635">
    <rdf:RDF>
      <cc:Work
         rdf:about="">
        <dc:format>image/svg+xml</dc:format>
        <dc:type
           rdf:resource="http://purl.org/dc/dcmitype/StillImage" />
        <dc:title></dc:title>
      </cc:Work>
    </rdf:RDF>
  </metadata>
  <g
     id="layer1"
     inkscape:groupmode="layer"
     inkscape:label="Ebene 1">
    <g
       transform="matrix(0.12521285,0,0,0.12873829,20.309231,17.398392)"
       id="g6407"
       style="stroke:url(#linearGradient7543);stroke-opacity:1;fill:#ffffff">
      <g
         style="fill:#ffffff;fill-opacity:1;stroke:url(#linearGradient7543);stroke-opacity:1"
         id="g3086"
         transform="matrix(1.838166,0,0,1.838166,-40.460786,-27.704713)">
        <path
           inkscape:connector-curvature="0"
           id="path2207"
           style="fill:#ffffff;fill-opacity:1;fill-rule:evenodd;stroke:url(#linearGradient7543);stroke-opacity:1"
           d="M 86.952451,350.25926 211.48225,288.56327 v 31.73651 l -81.04802,40.25465" />
        <path
           inkscape:connector-curvature="0"
           id="path3954"
           style="fill:#ffffff;fill-opacity:1;fill-rule:evenodd;stroke:url(#linearGradient7543);stroke-opacity:1"
           d="m 86.658325,329.93645 97.708215,-47.99791 26.98098,6.90752 -124.462036,61.6194" />
        <path
           inkscape:connector-curvature="0"
           id="path1331"
           style="fill:#ffffff;fill-opacity:1;fill-rule:evenodd;stroke:url(#linearGradient7543);stroke-opacity:1"
           d="m 68.484778,359.64478 18.583243,-9.26743 -0.382784,-192.96551 -18.532706,-4.1848" />
        <path
           inkscape:connector-curvature="0"
           id="path2209"
           style="fill:#ffffff;fill-opacity:1;fill-rule:evenodd;stroke:url(#linearGradient7543);stroke-opacity:1"
           d="M 247.44219,388.17706 87.140094,350.28156 68.541801,359.56405 247.14328,402.3755" />
        <path
           inkscape:connector-curvature="0"
           id="path4030"
           style="fill:#ffffff;fill-opacity:1;fill-rule:evenodd;stroke:url(#linearGradient7543);stroke-opacity:1"
           d="m 41,114.375 v 269.9375 l 232.21875,55.75 0.21083,-270.98042 z m 27.53125,39.1875 177.25,41.8125 v 206.78125 l -177.25,-42.5625 z" />
        <path
           inkscape:connector-curvature="0"
           id="path4037"
           style="fill:#ffffff;fill-opacity:1;fill-rule:evenodd;stroke:url(#linearGradient7543);stroke-opacity:1"
           d="M 434.76093,90.164629 V 360.10211 l -161.5042,80.07682 V 169.0931 Z m -19.14752,42.071651 -123.27436,60.38078 v 206.78125 l 123.27436,-61.13078 z" />
        <path
           inkscape:connector-curvature="0"
           id="path5814"
           style="fill:#ffffff;fill-opacity:1;fill-rule:evenodd;stroke:url(#linearGradient7543);stroke-opacity:1"
           d="M 86.943958,111.8566 210.94182,50.494216 v 32.139762 l -80.31853,39.407142 v 0" />
        <path
           inkscape:connector-curvature="0"
           id="path5816"
           style="fill:#ffffff;fill-opacity:1;fill-rule:evenodd;stroke:url(#linearGradient7543);stroke-opacity:1"
           d="M 389.07175,93.295537 210.73046,50.388534 210.83614,82.621628 345.18596,114.8157" />
        <path
           inkscape:connector-curvature="0"
           id="path5803"
           style="fill:#ffffff;fill-opacity:1;fill-rule:evenodd;stroke:url(#linearGradient7543);stroke-opacity:1"
           d="M 202.8125,34.53125 41.40625,114.46875 273.34375,169 434.8125,90.28125 Z m 8.25,15.90625 178.25,42.84375 -124.0625,60.4375 -178.1875,-41.875 z" />
        <path
           inkscape:connector-curvature="0"
           id="path3964"
           style="fill:#ffffff;fill-opacity:1;fill-rule:evenodd;stroke:url(#linearGradient7543);stroke-opacity:1"
           d="m 210.83037,82.657166 19.49402,4.668737 V 279.44925 l -19.49402,9.69718 0.48085,-0.0481" />
        <path
           inkscape:connector-curvature="0"
           id="path1325"
           style="fill:#ffffff;fill-opacity:1;fill-rule:evenodd;stroke:url(#linearGradient7543);stroke-opacity:1"
           d="M 184.30989,282.14977 V 95.620557 l 26.50907,-12.923607 0.55563,206.21442" />
        <path
           inkscape:connector-curvature="0"
           id="path4846"
           style="fill:#ffffff;fill-opacity:1;fill-rule:evenodd;stroke:url(#linearGradient7543);stroke-opacity:1"
           d="m 211.52275,288.79783 v 31.42954 l 134.49145,32.29723 43.67357,-21.30653" />
        <path
           inkscape:connector-curvature="0"
           id="path4842"
           style="fill:#ffffff;fill-opacity:1;fill-rule:evenodd;stroke:url(#linearGradient7543);stroke-opacity:1"
           d="m 390.53194,317.33115 -160.06877,-37.96216 -18.83162,9.41581 178.60148,42.74479" />
        <path
           inkscape:connector-curvature="0"
           id="path2205"
           style="fill:#ffffff;fill-opacity:1;fill-rule:evenodd;stroke:url(#linearGradient7543);stroke-opacity:1"
           d="m 415.72361,132.10888 -26.1546,12.58149 -0.13333,186.44957 26.42126,6.87226" />
        <path
           inkscape:connector-curvature="0"
           id="path4848"
           style="fill:#ffffff;fill-opacity:1;fill-rule:evenodd;stroke:url(#linearGradient7543);stroke-opacity:1"
           d="m 415.76525,338.12495 -123.39789,61.23546 v -20.64334 l 97.13716,-47.49092 z" />
      </g>
      <path
         inkscape:connector-curvature="0"
         id="path829"
         d="M 256.97081,731.12837 C 145.55987,704.33386 50.120425,681.3169 44.883159,679.97958 l -9.522303,-2.43144 V 431.76556 c 0,-202.84598 0.808746,-245.78256 4.629517,-245.78256 2.546234,0 56.693509,12.28467 120.327287,27.29926 63.63376,15.0146 120.76189,28.38306 126.95139,29.7077 l 11.25363,2.40843 V 196.97247 148.54654 L 321.4187,137.8322 c 12.59282,-5.89289 23.50018,-10.71435 24.23859,-10.71435 0.73841,0 1.34256,84.14253 1.34256,186.9834 0,102.84086 -0.84841,186.98339 -1.88536,186.98339 -1.03695,0 -11.94431,-2.52673 -24.23859,-5.61494 l -22.35322,-5.61497 v -93.00475 -93.00476 l -7.79098,-1.84494 C 164.56546,272.12344 91.597913,255.29182 88.136784,255.26715 c -3.460173,-0.0246 -4.173473,38.98316 -3.462655,189.36056 l 0.895231,189.3916 161.01348,38.94088 c 88.55742,21.4175 162.21506,39.03213 163.68368,39.14366 1.46861,0.1115 2.24771,-30.57158 1.73132,-68.18467 l -0.93886,-68.38745 -29.43257,-7.1348 -29.43257,-7.1348 -1.01022,-28.63661 c -0.9232,-26.17009 -0.47582,-28.47348 5.19399,-26.74226 3.4123,1.04191 72.42748,17.61841 153.36705,36.83663 80.93957,19.21819 150.22076,35.8416 153.95821,36.94085 5.07646,1.4931 -2.66527,6.74474 -30.6054,20.76122 L 595.6967,619.1845 543.19838,606.93892 c -28.87408,-6.73507 -57.94172,-13.83012 -64.59477,-15.76675 -6.65304,-1.93663 -13.25109,-3.52114 -14.66233,-3.52114 -1.41128,0 -2.97976,43.24379 -3.48555,96.09734 l -0.91958,96.09735 z"
         style="fill:#ffffff;fill-opacity:1;paint-order:fill markers stroke;stroke:url(#linearGradient7543);stroke-opacity:1" />
      <path
         inkscape:connector-curvature="0"
         id="path831"
         d="m 437.02889,497.97909 -22.50726,-5.89848 -0.92919,-80.21669 -0.9292,-80.21668 -13.78709,-3.71248 -13.78709,-3.71248 v -28.98677 -28.98677 l 19.91027,4.72786 c 10.95065,2.60032 28.09079,6.60321 38.08921,8.89531 l 18.17894,4.16746 v 110.25397 c 0,60.63967 -0.38955,110.10327 -0.86566,109.91909 -0.47612,-0.18417 -10.99393,-2.98918 -23.37293,-6.23334 z"
         style="fill:#ffffff;fill-opacity:1;paint-order:fill markers stroke;stroke:url(#linearGradient7543);stroke-opacity:1" />
      <path
         inkscape:connector-curvature="0"
         id="path833"
         d="m 463.95249,706.05909 c -0.7693,-70.89354 0.0798,-111.93916 2.363,-114.2223 0.64804,-0.64807 7.56832,0.54239 15.3784,2.64543 l 14.20015,3.82371 v 55.22776 55.22776 l 108.20798,-53.88027 c 59.51439,-29.63416 110.96936,-55.71537 114.34437,-57.95823 5.76852,-3.83348 6.07989,-15.44663 5.19399,-193.71779 L 722.69797,213.5653 609.296,269.71419 495.89404,325.86308 v 93.0381 c 0,86.98509 -0.39424,92.92098 -6.05965,91.23789 -3.33281,-0.99015 -10.34468,-2.82227 -15.58195,-4.07139 l -9.5223,-2.27116 V 393.22212 282.64771 l 21.64159,-9.85617 c 11.90288,-5.42089 77.34707,-37.20333 145.43153,-70.62764 L 755.5932,141.39242 v 246.6247 246.62471 l -23.37293,11.64653 c -12.85511,6.4056 -78.29929,38.5985 -145.43153,71.53978 l -122.0586,59.89321 z"
         style="fill:#ffffff;fill-opacity:1;paint-order:fill markers stroke;stroke:url(#linearGradient7543);stroke-opacity:1" />
      <path
         inkscape:connector-curvature="0"
         id="path835"
         d="M 243.98585,726.70151 35.360856,676.07904 V 526.8166 c 0,-82.09433 1.032833,-191.72571 2.295185,-243.62529 l 2.295184,-94.36287 14.152429,2.20145 c 7.783836,1.2108 65.572866,14.25233 128.420066,28.98116 l 114.26763,26.7797 1.05448,-48.58282 1.05448,-48.58282 21.11182,-9.5747 c 11.6115,-5.26609 21.87358,-8.81295 22.80463,-7.8819 2.38102,2.38102 1.92748,361.93802 -0.45956,364.32503 -1.0752,1.07519 -10.98826,-0.24931 -22.02905,-2.94305 L 300.254,488.65257 299.33415,395.25675 298.4143,301.86094 197.18582,278.4897 C 141.51015,265.63552 93.230485,255.14494 89.897679,255.17729 c -5.696816,0.0553 -6.059647,11.44478 -6.059647,190.21637 v 190.15756 l 30.298238,7.14062 c 16.66403,3.92734 88.55905,21.1973 159.76672,38.37772 71.20767,17.18038 131.58773,31.23706 134.1779,31.23706 3.81287,0 4.70942,-13.10573 4.70942,-68.84205 v -68.84203 l -16.44762,-4.05781 c -9.04618,-2.23179 -22.29084,-5.59323 -29.43257,-7.46985 l -12.98496,-3.41203 v -25.83643 c 0,-14.21005 1.066,-25.83647 2.36888,-25.83647 4.55097,0 293.74644,69.52656 300.3526,72.20887 5.36788,2.17957 -0.0208,6.10033 -27.70124,20.15362 l -34.36568,17.44767 -64.88161,-15.70484 c -35.68485,-8.63767 -65.70947,-14.87696 -66.72136,-13.8651 -1.01185,1.01189 -2.83951,44.14138 -4.06145,95.84333 -1.22194,51.70198 -3.14032,93.82965 -4.26308,93.61704 -1.12277,-0.21261 -95.92262,-23.16665 -210.66637,-51.00903 z"
         style="fill:#ffffff;fill-opacity:1;paint-order:fill markers stroke;stroke:url(#linearGradient7543);stroke-opacity:1" />
      <path
         inkscape:connector-curvature="0"
         id="path837"
         d="m 496.57874,687.20237 1.04662,-18.17894 88.29772,-43.7468 c 52.54524,-26.03336 86.19463,-44.5523 83.10373,-45.73614 -5.43379,-2.08119 -263.8229,-64.15553 -298.99969,-71.83046 l -20.25593,-4.41947 16.42631,-8.34808 c 18.56401,-9.4345 15.01658,-9.73895 84.68202,7.26755 27.61467,6.7412 88.38428,21.05591 135.04356,31.81046 46.65928,10.75455 85.89261,20.59868 87.18517,21.87585 1.29257,1.27716 2.85076,7.71382 3.46266,14.30369 1.06656,11.48644 1.9353,12.18154 21.02281,16.82084 10.95064,2.6616 19.91027,5.85148 19.91027,7.08861 0,2.09887 -215.92278,111.27183 -220.07395,111.27183 -1.04385,0 -1.42694,-8.18052 -0.8513,-18.17894 z"
         style="fill:#ffffff;fill-opacity:1;paint-order:fill markers stroke;stroke:url(#linearGradient7543);stroke-opacity:1" />
      <path
         inkscape:connector-curvature="0"
         id="path839"
         d="m 699.03193,585.89408 c -9.20741,-2.5302 -17.77748,-5.63589 -19.04461,-6.90149 -1.26713,-1.26564 -2.74885,-78.1623 -3.29272,-170.88151 l -0.98885,-168.58037 22.63045,-11.15958 22.63044,-11.15958 v 186.95107 c 0,102.82309 -1.16864,186.81173 -2.59699,186.64143 -1.42835,-0.17036 -10.13032,-2.37978 -19.33772,-4.90997 z"
         style="fill:#ffffff;fill-opacity:1;paint-order:fill markers stroke;stroke:url(#linearGradient7543);stroke-opacity:1" />
      <path
         inkscape:connector-curvature="0"
         id="path841"
         d="m 422.31261,273.34028 -37.22355,-8.8402 v -11.5573 c 0,-6.35651 1.68812,-11.5573 3.75141,-11.5573 2.06326,0 15.88483,3.09794 30.71455,6.88431 l 26.96318,6.88431 91.34402,-44.43733 c 50.23925,-24.44054 101.08277,-48.7869 112.98565,-54.10303 11.90288,-5.31614 21.64159,-10.6734 21.64159,-11.90503 0,-1.23163 -72.91819,-19.76396 -162.04043,-41.18295 L 348.40863,64.582146 234.69615,120.55258 c -72.34168,35.6073 -111.96611,56.88426 -108.91237,58.48219 2.64006,1.38147 20.38206,5.94466 39.42666,10.14041 19.04461,4.19575 56.05174,12.52387 82.23807,18.50694 l 47.61151,10.87831 v 11.41253 c 0,6.27689 -1.54167,11.41252 -3.42593,11.41252 -5.41126,0 -239.977642,-55.1781 -246.959617,-58.09342 -4.632299,-1.93421 32.238158,-21.52332 141.266207,-75.05409 L 333.47522,35.801205 540.20588,85.329908 c 113.70187,27.240782 208.68652,50.580332 211.07697,51.865672 2.47555,1.33109 -58.34983,32.82692 -141.31454,73.17371 -80.11345,38.9602 -146.73435,71.05598 -148.04649,71.32396 -1.3121,0.26798 -19.13626,-3.49086 -39.60921,-8.35297 z"
         style="fill:#ffffff;fill-opacity:1;paint-order:fill markers stroke;stroke:url(#linearGradient7543);stroke-opacity:1" />
      <path
         inkscape:connector-curvature="0"
         id="path843"
         d="M 556.49051,173.90078 C 539.35036,169.50675 485.20309,156.26371 436.16323,144.47179 L 346.99985,123.03194 V 95.642333 c 0,-21.118992 1.10566,-27.389615 4.82943,-27.389615 4.39757,0 267.69075,63.089692 302.63648,72.517042 l 14.87153,4.0119 -38.44745,18.86934 c -21.1461,10.37814 -39.52474,18.72749 -40.84144,18.55412 -1.3167,-0.17336 -16.41775,-3.91032 -33.55789,-8.30434 z"
         style="fill:#ffffff;fill-opacity:1;paint-order:fill markers stroke;stroke:url(#linearGradient7543);stroke-opacity:1" />
      <path
         inkscape:connector-curvature="0"
         id="path845"
         d="m 166.94177,187.46669 c -18.09238,-4.26951 -33.28478,-7.90816 -33.76089,-8.08588 -0.47612,-0.1777 -2.03431,-0.32895 -3.46266,-0.33608 -1.42834,-0.007 2.85669,-3.37029 9.52231,-7.47373 15.36404,-9.45831 201.6746,-103.26062 205.16233,-103.293672 1.42835,-0.01354 2.59699,12.068237 2.59699,26.848385 V 121.9987 l -73.58143,36.61536 -73.58142,36.61537 z"
         style="fill:#ffffff;fill-opacity:1;paint-order:fill markers stroke;stroke:url(#linearGradient7543);stroke-opacity:1" />
      <path
         inkscape:connector-curvature="0"
         id="path847"
         d="m 350.44459,347.81713 c -0.01,-84.24762 -1.02396,-168.3699 -2.25357,-186.93839 -2.47769,-37.41565 -3.01017,-36.63149 20.45043,-30.11616 l 12.98496,3.6061 v 175.74268 175.74269 l -15.58195,7.5703 -15.58195,7.5703 -0.0179,-153.17752 z"
         style="fill:#ffffff;fill-opacity:1;paint-order:fill markers stroke;stroke:url(#linearGradient7543);stroke-opacity:1" />
      <path
         inkscape:connector-curvature="0"
         id="path849"
         d="m 159.15395,624.45776 c -16.6623,-4.05579 -30.29651,-8.21724 -30.29824,-9.24768 -0.004,-2.12167 211.53295,-107.40684 215.54715,-107.28133 1.42835,0.0447 2.59699,11.76058 2.59699,26.03537 v 25.95416 l -72.68429,36.37364 c -39.97636,20.00549 -75.4253,36.18606 -78.77541,35.95682 -3.35012,-0.22927 -19.72391,-3.73519 -36.3862,-7.79098 z"
         style="fill:#ffffff;fill-opacity:1;paint-order:fill markers stroke;stroke:url(#linearGradient7543);stroke-opacity:1" />
      <path
         inkscape:connector-curvature="0"
         id="path851"
         d="m 121.92725,596.16469 v -19.17322 l 88.09359,-42.81217 88.09359,-42.81215 20.98006,5.28488 c 11.53903,2.90669 20.98005,6.27328 20.98005,7.48132 0,1.20803 -49.08314,26.72325 -109.07364,56.70049 l -109.07365,54.50408 z"
         style="fill:#ffffff;fill-opacity:1;paint-order:fill markers stroke;stroke:url(#linearGradient7543);stroke-opacity:1" />
      <path
         inkscape:connector-curvature="0"
         id="path853"
         d="M 87.300688,443.95083 V 258.69876 l 7.790975,0.0473 c 4.285036,0.026 11.296917,0.98684 15.581957,2.13518 l 7.79097,2.0879 v 176.1212 176.1212 l -13.71268,6.9957 c -7.541971,3.8476 -14.553849,6.99567 -15.581949,6.99567 -1.0281,0 -1.869273,-83.36343 -1.869273,-185.25206 z"
         style="fill:#ffffff;fill-opacity:1;paint-order:fill markers stroke;stroke:url(#linearGradient7543);stroke-opacity:1" />
      <path
         inkscape:connector-curvature="0"
         id="path855"
         d="M 246.58284,670.67957 C 161.83435,650.03513 91.715574,632.96612 90.763343,632.74842 c -0.95223,-0.21769 5.059997,-3.94922 13.360507,-8.29228 l 15.09183,-7.89647 40.31066,9.41082 c 22.17086,5.17595 85.49831,19.9168 140.72766,32.75745 55.22936,12.84065 102.36476,24.08278 104.74533,24.9825 2.38058,0.89973 4.32832,6.92285 4.32832,13.3847 0,7.25837 -1.6543,11.62861 -4.32832,11.4343 -2.38057,-0.17299 -73.66799,-17.20543 -158.41649,-37.84987 z"
         style="fill:#ffffff;fill-opacity:1;paint-order:fill markers stroke;stroke:url(#linearGradient7543);stroke-opacity:1" />
      <path
         inkscape:connector-curvature="0"
         id="path6283"
         d="M 244.85152,726.95622 C 131.53612,699.49279 38.393148,677.01483 37.867147,677.00513 c -2.269809,-0.0418 1.202946,-484.46178 3.489437,-486.74687 1.393189,-1.39233 59.297716,10.66139 128.676726,26.78605 l 126.14365,29.31756 2.03853,-10.1926 c 1.12118,-5.60593 2.03852,-27.66196 2.03852,-49.01339 v -38.82079 l 21.36016,-9.21644 c 11.74809,-5.06903 21.89013,-8.68646 22.53788,-8.03871 0.64774,0.64774 0.77439,83.63531 0.28143,184.41682 l -0.89628,183.23909 -21.6416,-4.66603 -21.64159,-4.66606 v -92.82104 c 0,-71.07959 -1.01382,-93.2026 -4.32832,-94.45005 -15.79412,-5.94429 -207.546369,-48.08959 -209.570236,-46.06152 -1.384581,1.38746 -2.51742,86.58995 -2.51742,189.33887 0,138.72718 1.04112,187.45958 4.044537,189.31557 8.273967,5.11296 319.661229,78.09527 322.232909,75.52429 3.73495,-3.73396 5.65046,-80.60643 2.77355,-111.30741 l -2.38224,-25.42184 -28.29079,-6.57739 -28.29083,-6.57738 -1.01132,-26.52422 c -0.55623,-14.58831 0.0226,-26.52422 1.28633,-26.52422 3.38782,0 307.72119,73.30937 308.9361,74.41811 0.56912,0.51937 -14.37026,8.85737 -33.19869,18.52885 l -34.23348,17.58454 -65.12178,-15.52184 c -35.81701,-8.537 -66.06525,-14.58107 -67.21831,-13.43123 -1.1531,1.14985 -2.57902,44.0347 -3.16875,95.29966 -0.79772,69.35103 -2.12721,93.14314 -5.19398,92.95162 -2.26697,-0.14158 -96.83437,-22.72748 -210.14977,-50.19091 z"
         style="fill:#ffffff;fill-opacity:1;paint-order:fill markers stroke;stroke:url(#linearGradient7543);stroke-opacity:1" />
      <path
         inkscape:connector-curvature="0"
         id="path6285"
         d="M 404.13367,765.47954 C 378.42345,759.1343 288.04815,737.31735 203.29965,716.99742 118.55116,696.67751 46.484638,679.25759 43.151833,678.28649 c -5.693585,-1.65896 -6.059647,-15.84494 -6.059647,-234.8287 0,-128.18469 0.994002,-238.03308 2.208894,-244.10755 2.718734,-13.59366 -8.846935,-15.22362 141.9857,20.01012 l 114.76201,26.80782 2.10261,-15.34019 c 1.15643,-8.43711 2.10261,-30.50099 2.10261,-49.03085 v -33.69066 l 21.2475,-9.21478 c 11.68613,-5.06813 21.82818,-8.63412 22.53788,-7.92442 0.70971,0.70971 0.88705,83.83897 0.39409,184.73169 l -0.89628,183.44132 -21.6416,-4.80741 -21.64159,-4.80741 v -91.09704 c 0,-68.70154 -1.06409,-91.95796 -4.32832,-94.59893 C 290.81545,299.69502 92.488097,254.13893 88.995666,256.29737 84.283248,259.2098 81.707743,396.07029 84.137214,514.472 l 2.475384,120.63943 92.104422,22.44722 c 136.04545,33.15631 229.45736,54.6316 230.98564,53.10332 3.43516,-3.43516 5.49475,-67.06025 3.24111,-100.12417 l -2.50783,-36.79352 -28.2554,-6.40269 -28.25537,-6.40273 -1.01132,-26.81072 c -0.55623,-14.74589 0.0697,-26.81072 1.39093,-26.81072 5.33436,0 307.03857,72.65548 308.8315,74.37185 0.56912,0.54482 -14.43477,8.93677 -33.34201,18.64876 l -34.37683,17.65815 -65.11257,-15.46138 c -35.81189,-8.50376 -65.99565,-14.57951 -67.07496,-13.50172 -1.07934,1.07782 -2.50142,43.90232 -3.16019,95.16558 -0.86851,67.58058 -2.29647,93.15253 -5.19399,93.01177 -2.19792,-0.10665 -25.03184,-5.38567 -50.74206,-11.73089 z"
         style="fill:#ffffff;fill-opacity:1;paint-order:fill markers stroke;stroke:url(#linearGradient7543);stroke-opacity:1" />
      <path
         inkscape:connector-curvature="0"
         id="path6287"
         d="M 251.77683,729.17045 C 144.17481,703.0451 51.820856,680.57883 46.545824,679.24547 l -9.590966,-2.42435 0.934328,-242.01536 c 0.51388,-133.10846 2.029038,-243.10953 3.367018,-244.44682 2.721787,-2.72038 11.806952,-0.82307 152.513816,31.85045 54.74921,12.7133 100.52132,22.13779 101.71581,20.9433 1.19449,-1.19449 2.97277,-23.16256 3.95174,-48.81793 l 1.77995,-46.64614 20.76575,-9.00585 c 11.42116,-4.95322 21.34642,-8.42519 22.05612,-7.71549 0.70971,0.70971 0.88705,83.83897 0.39409,184.73169 l -0.89628,183.44132 -21.6416,-4.80741 -21.64159,-4.80741 -0.053,-88.92403 c -0.0292,-48.90823 -1.39436,-91.04104 -3.03378,-93.62847 -1.63942,-2.58742 -21.32971,-9.18039 -43.75619,-14.65104 -45.9826,-11.21684 -132.60212,-30.85263 -136.10581,-30.85383 -1.26681,-4.4e-4 -1.88587,79.42162 -1.3757,176.49345 l 0.9276,176.49424 -13.91256,7.09768 -13.912553,7.09765 V 445.06 261.46889 l 11.253633,-0.40969 11.25363,-0.40968 -10.38797,-2.44517 c -5.71338,-1.34484 -11.508879,-1.51986 -12.878882,-0.38892 -2.376095,1.96146 -3.045211,68.94365 -2.809453,281.2417 l 0.106387,95.79883 80.506748,19.5612 c 77.82799,18.91035 240.37203,57.19693 242.82706,57.19693 3.36826,0 5.75926,-64.70314 3.65421,-98.88665 l -2.40458,-39.04739 -28.11382,-6.3706 -28.11381,-6.37059 -1.01132,-26.81072 c -0.60209,-15.96177 0.36757,-26.81072 2.39629,-26.81072 4.54095,0 306.29142,72.79292 307.73514,74.23664 0.61916,0.61919 -14.39498,9.0983 -33.36487,18.84242 l -34.49061,17.71664 -58.30453,-13.80897 c -32.06748,-7.59495 -61.58513,-13.82565 -65.59478,-13.84598 -6.47905,-0.0346 -7.53585,2.56368 -9.49769,23.33591 -1.21407,12.85511 -2.21849,54.92637 -2.23202,93.4917 -0.0242,64.60227 -0.50136,70.08992 -6.08427,69.75207 -3.33281,-0.20187 -94.09766,-21.74201 -201.69968,-47.8674 z"
         style="fill:#ffffff;fill-opacity:1;paint-order:fill markers stroke;stroke:url(#linearGradient7543);stroke-opacity:1" />
      <path
         inkscape:connector-curvature="0"
         id="path6289"
         d="M 251.77683,729.27457 C 144.17481,703.11975 51.851754,680.62579 46.614488,679.28796 l -9.522302,-2.43235 0.04728,-236.26027 c 0.026,-129.94315 1.021566,-239.89901 2.212358,-244.34636 2.655885,-9.91916 -7.546066,-11.55219 140.783366,22.53523 62.48574,14.35978 114.29505,25.42407 115.13181,24.58732 0.83675,-0.83676 2.53786,-22.71636 3.78024,-48.62136 l 2.25888,-47.09998 20.47811,-8.8811 c 11.26296,-4.88461 21.1545,-8.88111 21.98121,-8.88111 0.82669,0 1.50309,83.46843 1.50309,185.48541 0,175.03312 -0.34146,185.38351 -6.05965,183.67732 -3.33281,-0.99447 -13.46107,-3.62173 -22.50726,-5.83841 l -16.44761,-4.03029 v -82.25983 c 0,-45.24291 -0.9489,-87.00431 -2.10866,-92.80311 -1.96048,-9.8024 -3.96788,-11.03935 -28.56691,-17.60279 -23.51618,-6.27451 -147.83693,-35.04739 -151.43143,-35.04739 -0.77756,0 -1.41375,79.43627 -1.41375,176.52505 v 176.52505 l -13.85062,7.06606 -13.850623,7.06607 V 445.29 261.92888 l 8.699468,-1.51746 c 7.967515,-1.38978 7.894675,-1.48197 -0.865663,-1.09566 l -9.565132,0.4218 -0.895343,187.55186 -0.895342,187.55186 59.760495,14.40454 c 50.61752,12.2007 234.43538,55.47762 257.52838,60.63085 6.95554,1.55214 7.40552,0.0346 8.99356,-30.3439 0.91944,-17.5878 0.93748,-48.47635 0.0402,-68.64126 l -1.63154,-36.66343 -28.13795,-6.71049 -28.13795,-6.71049 -1.01132,-26.74482 c -0.55623,-14.70967 0.37044,-26.74486 2.05927,-26.74486 6.81618,0 305.99111,72.15561 308.15755,74.32206 0.78575,0.78574 -14.28726,9.31527 -33.49562,18.95447 l -34.92427,17.52582 -59.00178,-13.84931 c -32.45097,-7.61711 -61.85282,-13.84931 -65.33747,-13.84931 -5.51386,0 -6.62755,4.11139 -8.58555,31.69584 -1.23741,17.43273 -2.24982,59.504 -2.24982,93.49169 0,56.65445 -0.50417,61.77191 -6.05965,61.50798 -3.33281,-0.15824 -94.09766,-21.68727 -201.69968,-47.84209 z"
         style="fill:#ffffff;fill-opacity:1;paint-order:fill markers stroke;stroke:url(#linearGradient7543);stroke-opacity:1" />
      <path
         inkscape:connector-curvature="0"
         id="path6291"
         d="M 433.56624,773.14967 C 425.9484,771.20314 339.46858,750.28022 241.38886,726.65424 143.30915,703.02827 57.21887,682.12806 50.077143,680.20926 l -12.984957,-3.48866 0.04728,-236.19276 c 0.026,-129.90602 1.021566,-239.83151 2.212358,-244.27886 2.654825,-9.91521 -7.468977,-11.51511 140.133176,22.14583 62.12813,14.16844 113.793,25.7608 114.81081,25.7608 1.01781,0 2.96835,-21.695 4.33453,-48.21111 l 2.48396,-48.21112 20.57402,-8.9227 c 11.31571,-4.90748 21.25041,-8.9227 22.07712,-8.9227 0.82669,0 1.50309,83.46843 1.50309,185.48541 0,175.03312 -0.34146,185.38351 -6.05965,183.67732 -3.33281,-0.99447 -13.46107,-3.62173 -22.50726,-5.83841 l -16.44761,-4.03029 -0.0381,-78.36434 c -0.0426,-87.49848 -1.57019,-103.09817 -10.56762,-107.91346 -4.78619,-2.56148 -97.81158,-25.01155 -165.12405,-39.84983 l -7.79098,-1.71743 v 176.59102 176.59102 l -13.81971,7.05031 -13.819707,7.05028 -0.928137,-180.97836 -0.928134,-180.97835 -0.834105,183.9838 -0.834105,183.9838 66.656128,16.01949 c 171.91428,41.3163 253.85433,60.07018 256.2365,58.64571 1.42834,-0.85413 2.59699,-31.54763 2.59699,-68.2078 V 574.433 l -28.56691,-6.81295 -28.5669,-6.81295 -1.01132,-26.74482 c -0.65083,-17.2114 0.30065,-26.74486 2.66924,-26.74486 4.86784,0 294.07816,69.35713 303.03626,72.6728 5.6104,2.07659 0.13123,5.98997 -28.5159,20.36709 l -35.46071,17.7966 -62.53064,-14.38758 c -44.27088,-10.1862 -63.6086,-13.30961 -66.22211,-10.69611 -2.32483,2.32483 -4.37306,37.13002 -5.53256,94.0129 -2.04726,100.43453 0.27251,92.98192 -26.79119,86.06655 z M 98.482182,259.37686 c -1.150612,-1.15061 -4.137153,-1.27362 -6.636757,-0.27337 -2.762275,1.10537 -1.941774,1.92587 2.092022,2.09202 3.650214,0.15035 5.695344,-0.66804 4.544735,-1.81866 z"
         style="fill:#ffffff;fill-opacity:1;paint-order:fill markers stroke;stroke:url(#linearGradient7543);stroke-opacity:1" />
      <path
         inkscape:connector-curvature="0"
         id="path6293"
         d="M 250.0455,729.27617 C 143.39571,703.20324 51.851754,680.74237 46.614488,679.3632 l -9.522302,-2.50759 0.05302,-239.72293 c 0.0312,-140.98764 1.373679,-241.81095 3.259491,-244.79253 2.728786,-4.31437 20.904503,-1.054 122.005593,21.88545 65.33951,14.82529 122.12346,27.74777 126.18656,28.71664 7.1885,1.71413 7.45544,0.44836 9.91217,-47.00013 l 2.52473,-48.76171 14.88291,-6.58341 c 8.1856,-3.62088 18.13842,-7.61668 22.11739,-8.87956 l 7.23448,-2.29613 v 185.71875 c 0,175.25236 -0.34149,185.6173 -6.05965,183.91852 -3.33281,-0.99014 -10.73423,-2.79817 -16.44761,-4.01785 -24.5769,-5.24662 -22.50418,2.00519 -22.53736,-78.85134 -0.035,-85.30908 -2.1107,-108.77038 -9.99176,-112.93554 -4.29682,-2.27089 -96.36696,-24.5881 -165.70791,-40.16654 l -7.79098,-1.75035 v 176.59102 176.59102 l -13.81085,7.04577 -13.810844,7.04578 -0.946316,-137.69066 -0.946316,-137.69062 -0.824787,140.41265 -0.824787,140.41265 59.73081,14.51902 c 133.09109,32.35096 236.12994,56.18065 238.91277,55.25304 1.62136,-0.54045 -57.06798,-15.48188 -130.4207,-33.20313 -73.35273,-17.72128 -139.23146,-33.83932 -146.39718,-35.81788 l -13.02858,-3.59735 12.75846,-6.54549 12.75846,-6.5455 141.25947,33.2452 c 77.69271,18.28483 142.42812,33.95989 143.85646,34.83345 1.42835,0.87356 2.59699,5.28834 2.59699,9.81057 0,6.31166 -2.21274,8.5575 -9.5223,9.66482 -8.86287,1.34261 -8.74296,1.47842 1.73133,1.96132 l 11.25363,0.51881 v -66.90453 -66.90453 l -28.56691,-6.6769 -28.5669,-6.6769 -1.01132,-26.83558 c -0.67899,-18.01713 0.2562,-26.83558 2.84588,-26.83558 8.21787,0 304.75497,71.70609 307.37593,74.32705 0.60731,0.60728 -14.17978,9.18178 -32.86022,19.05443 l -33.96439,17.95024 -56.35732,-12.87062 c -30.99651,-7.07885 -57.35598,-11.87196 -58.57656,-10.65134 -1.22062,1.22062 1.1568,2.21928 5.28311,2.21928 7.38221,0 7.50243,0.88786 7.50243,55.40249 0,34.84903 1.29237,55.40249 3.48364,55.40249 1.91599,0 53.21748,-24.87634 114.00326,-55.28074 l 110.51961,-55.28074 2.32653,-18.62081 c 2.88158,-23.06357 0.77065,-361.1046 -2.274,-364.1469 -1.21414,-1.21322 -53.02413,23.18811 -115.13329,54.22517 l -112.92575,56.43102 v 90.91949 c 0,99.57035 1.16356,94.38461 -19.91027,88.73702 l -7.79097,-2.08788 0.004,-109.53547 0.004,-109.53545 143.69584,-69.79447 143.69584,-69.79446 v 244.91873 244.91873 l -140.55888,68.99296 c -77.30742,37.9461 -141.97251,69.51232 -143.7002,70.14713 -1.8197,0.66864 -3.37699,-36.48018 -3.70144,-88.29771 -0.43003,-68.67793 -1.14417,-81.81244 -3.07508,-56.5567 -1.38323,18.09238 -2.68938,58.995 -2.90254,90.89471 -0.3865,57.8375 -0.40932,57.99847 -8.17855,57.63798 -4.28503,-0.19876 -95.04989,-21.69392 -201.69968,-47.76688 z M 475.91164,591.79178 c -1.15064,-1.15061 -4.13718,-1.2736 -6.63677,-0.27321 -2.76226,1.10535 -1.94178,1.92586 2.09204,2.092 3.65019,0.15028 5.69534,-0.66805 4.54473,-1.81865 z"
         style="fill:#ffffff;fill-opacity:1;paint-order:fill markers stroke;stroke:url(#linearGradient7543);stroke-opacity:1" />
    </g>
  </g>
</svg>
